<svg width="264" height="264" viewBox="0 0 264 264" fill="none" xmlns="http://www.w3.org/2000/svg">
<g filter="url(#filter0_dd_425_716)">
<rect x="12" y="2" width="240" height="240" rx="18.3797" fill="#FF3C38"/>
<path d="M81.4424 192.833V51.166H130.243C141.259 51.166 149.667 51.8425 155.465 53.1953C163.582 55.0636 170.507 58.4458 176.241 63.342C183.714 69.6555 189.287 77.7406 192.959 87.5973C196.696 97.3897 198.564 108.599 198.564 121.226C198.564 131.985 197.308 141.52 194.795 149.83C192.283 158.141 189.061 165.034 185.132 170.51C181.202 175.922 176.885 180.206 172.182 183.362C167.544 186.455 161.907 188.806 155.271 190.417C148.7 192.027 141.131 192.833 132.562 192.833H81.4424ZM100.19 176.115H130.436C139.778 176.115 147.09 175.245 152.372 173.506C157.719 171.766 161.971 169.318 165.128 166.161C169.573 161.716 173.02 155.757 175.468 148.284C177.981 140.747 179.237 131.631 179.237 120.936C179.237 106.119 176.789 94.7483 171.893 86.8243C167.061 78.8358 161.166 73.4887 154.208 70.7829C149.183 68.8502 141.098 67.8838 129.953 67.8838H100.19V176.115Z" fill="white"/>
<rect x="66.167" y="115.311" width="74.2461" height="13.1023" fill="white"/>
</g>
<defs>
<filter id="filter0_dd_425_716" x="0" y="0" width="264" height="264" filterUnits="userSpaceOnUse" color-interpolation-filters="sRGB">
<feFlood flood-opacity="0" result="BackgroundImageFix"/>
<feColorMatrix in="SourceAlpha" type="matrix" values="0 0 0 0 0 0 0 0 0 0 0 0 0 0 0 0 0 0 127 0" result="hardAlpha"/>
<feMorphology radius="4" operator="erode" in="SourceAlpha" result="effect1_dropShadow_425_716"/>
<feOffset dy="4"/>
<feGaussianBlur stdDeviation="3"/>
<feColorMatrix type="matrix" values="0 0 0 0 0 0 0 0 0 0 0 0 0 0 0 0 0 0 0.1 0"/>
<feBlend mode="normal" in2="BackgroundImageFix" result="effect1_dropShadow_425_716"/>
<feColorMatrix in="SourceAlpha" type="matrix" values="0 0 0 0 0 0 0 0 0 0 0 0 0 0 0 0 0 0 127 0" result="hardAlpha"/>
<feMorphology radius="3" operator="erode" in="SourceAlpha" result="effect2_dropShadow_425_716"/>
<feOffset dy="10"/>
<feGaussianBlur stdDeviation="7.5"/>
<feColorMatrix type="matrix" values="0 0 0 0 0 0 0 0 0 0 0 0 0 0 0 0 0 0 0.1 0"/>
<feBlend mode="normal" in2="effect1_dropShadow_425_716" result="effect2_dropShadow_425_716"/>
<feBlend mode="normal" in="SourceGraphic" in2="effect2_dropShadow_425_716" result="shape"/>
</filter>
</defs>
</svg>
