<svg width="76" height="121" viewBox="0 0 76 121" fill="none" xmlns="http://www.w3.org/2000/svg">
<path d="M41.3861 0V8.42125H47.2554V17.2857H52.9743V24.9683H58.8436V32.7985H64.7129V40.6288C64.8227 40.6687 64.8935 40.4811 64.9386 40.4811H70.1307V47.8681H76V55.8462H69.9802V60.8694H64.4119V65.3016H58.6931V70.177H52.8238V74.3138H47.1049V78.746H41.2356V83.7692H35.3663V78.746H29.196V74.4615H23.4772C23.8143 72.9708 23.5269 71.393 23.6277 69.8816H17.7584V65.3016H11.7386V61.091C11.7386 61.0466 11.9297 60.9772 11.8891 60.8694H6.0198V55.6984C5.90994 55.6585 5.83921 55.8462 5.79406 55.8462H0V47.8681H5.86931V40.4811H11.5129C11.558 40.4811 11.6288 40.6687 11.7386 40.6288V32.7985H17.6079V24.9683H23.1762V17.2857H28.8951V8.42125H34.9149C34.9555 8.31339 34.7644 8.24396 34.7644 8.19963V0H41.3861Z" fill="#5CB75A"/>
<path d="M70.1306 71.2103C70.1487 74.2611 70.117 77.3194 70.1306 80.3702H64.7128V88.4221C64.7128 88.9037 63.1431 88.4842 62.8331 88.4856C61.4741 88.493 60.1121 88.8254 58.693 88.496V96.8434C58.693 96.867 58.9533 97.2127 58.6177 97.2127H52.9742V105.634H47.2553V114.351H41.386V120.999H34.9147V114.351H29.0454V105.782H23.4019C23.3853 105.782 23.1761 105.576 23.1761 105.56V97.2127H17.4573V88.496L11.588 88.6437V80.3702H5.8692V71.358H0.150391V65.7438C0.260252 65.704 0.330985 65.8916 0.376133 65.8916H5.64346C5.66754 65.8916 6.0197 65.636 6.0197 65.9655V71.2103H11.889V75.4948H17.7583V79.7793H23.4771V84.2115H29.1959V88.496H35.0652V92.9282H41.386V88.496H47.1048V84.2115H52.9742V79.7793H58.693V75.4948H64.4118V71.2103C66.3155 71.2339 68.2283 71.1792 70.1306 71.2103C70.1201 69.4374 70.1441 67.6645 69.9801 65.8916H75.8494V71.358C74.1684 71.3285 72.4798 71.3964 70.7973 71.3639C70.5128 71.358 70.2374 71.2117 70.1306 71.2103Z" fill="#5CB75A"/>
<path d="M17.3067 88.793V97.0665H17.1562V88.9407H11.5879V88.793H17.3067Z" fill="#5CB75A"/>
<path d="M28.8955 105.93V114.351H28.745V106.077H23.3271V105.93H28.8955Z" fill="#5CB75A"/>
<path d="M34.6142 8.2735H29.0459V8.12576H34.4637V0H34.6142V8.2735Z" fill="#5CB75A"/>
<path d="M23.0262 97.3613V105.635H22.8757V97.5091H17.6084V97.3613H23.0262Z" fill="#5CB75A"/>
</svg>
